<svg xmlns="http://www.w3.org/2000/svg" version="1.1" xmlns:xlink="http://www.w3.org/1999/xlink" xmlns:svgjs="http://svgjs.dev/svgjs" viewBox="0 0 800 800" opacity="1"><defs><linearGradient x1="50%" y1="0%" x2="50%" y2="100%" id="nnneon-grad"><stop stop-color="hsl(0, 0%, 0%)" stop-opacity="1" offset="0%"></stop><stop stop-color="hsl(0, 87%, 61%)" stop-opacity="1" offset="100%"></stop></linearGradient><filter id="nnneon-filter" x="-100%" y="-100%" width="400%" height="400%" filterUnits="objectBoundingBox" primitiveUnits="userSpaceOnUse" color-interpolation-filters="sRGB">
	<feGaussianBlur stdDeviation="30 29" x="0%" y="0%" width="100%" height="100%" in="SourceGraphic" edgeMode="none" result="blur"></feGaussianBlur></filter><filter id="nnneon-filter2" x="-100%" y="-100%" width="400%" height="400%" filterUnits="objectBoundingBox" primitiveUnits="userSpaceOnUse" color-interpolation-filters="sRGB">
	<feGaussianBlur stdDeviation="6 18" x="0%" y="0%" width="100%" height="100%" in="SourceGraphic" edgeMode="none" result="blur"></feGaussianBlur></filter></defs><g stroke-width="10.5" stroke="url(#nnneon-grad)" fill="none"><path d="M400 260.8587646484375L520.5000076998722 330.4293750799132V469.5705959428646L400 539.1412063743403L279.49999230012776 469.5705959428646V330.4293750799132L400 260.8587646484375Z " filter="url(#nnneon-filter)"></path><path d="M415 260.8587646484375L535.5000076998722 330.4293750799132V469.5705959428646L415 539.1412063743403L294.49999230012776 469.5705959428646V330.4293750799132L415 260.8587646484375Z " filter="url(#nnneon-filter2)" opacity="0.54"></path><path d="M385 260.8587646484375L505.50000769987224 330.4293750799132V469.5705959428646L385 539.1412063743403L264.49999230012776 469.5705959428646V330.4293750799132L385 260.8587646484375Z " filter="url(#nnneon-filter2)" opacity="0.54"></path><path d="M400 260.8587646484375L520.5000076998722 330.4293750799132V469.5705959428646L400 539.1412063743403L279.49999230012776 469.5705959428646V330.4293750799132L400 260.8587646484375Z "></path></g>
</svg>